<svg width="163" height="31" viewBox="0 0 163 31" fill="none" xmlns="http://www.w3.org/2000/svg">
<path d="M20.4 24H15.312L4.496 6.08H4.368C4.38933 6.54933 4.41067 7.05067 4.432 7.584C4.47467 8.096 4.50667 8.62933 4.528 9.184C4.54933 9.71733 4.57067 10.2613 4.592 10.816C4.61333 11.3707 4.63467 11.9253 4.656 12.48V24H0.976V1.152H6.032L16.816 18.944H16.912C16.8907 18.5173 16.8693 18.0587 16.848 17.568C16.8267 17.056 16.8053 16.5333 16.784 16C16.784 15.4667 16.7733 14.9227 16.752 14.368C16.7307 13.8133 16.7093 13.28 16.688 12.768V1.152H20.4V24ZM39.343 24H26.351V1.152H39.343V4.576H30.447V10.4H38.767V13.824H30.447V20.544H39.343V24ZM71.5548 1.152L65.6348 24H61.1228L57.5068 10.88C57.4214 10.56 57.3254 10.1653 57.2188 9.696C57.1121 9.22667 56.9948 8.74667 56.8668 8.256C56.7601 7.744 56.6641 7.27467 56.5788 6.848C56.4934 6.4 56.4401 6.06933 56.4188 5.856C56.3974 6.06933 56.3441 6.4 56.2588 6.848C56.1734 7.27467 56.0774 7.744 55.9708 8.256C55.8641 8.74667 55.7574 9.23733 55.6508 9.728C55.5441 10.1973 55.4374 10.6027 55.3308 10.944L51.8108 24H47.2668L41.3788 1.152H45.4748L48.6108 14.176C48.7174 14.6027 48.8241 15.072 48.9308 15.584C49.0374 16.0747 49.1441 16.5867 49.2508 17.12C49.3574 17.632 49.4534 18.144 49.5388 18.656C49.6241 19.1467 49.6881 19.584 49.7308 19.968C49.7734 19.5627 49.8374 19.1147 49.9228 18.624C50.0081 18.112 50.1041 17.6 50.2108 17.088C50.3174 16.5547 50.4241 16.0533 50.5308 15.584C50.6374 15.0933 50.7441 14.6773 50.8508 14.336L54.4348 1.152H58.4028L62.0508 14.368C62.1574 14.7307 62.2641 15.1573 62.3708 15.648C62.4988 16.1173 62.6161 16.6187 62.7228 17.152C62.8294 17.664 62.9148 18.1653 62.9788 18.656C63.0641 19.1467 63.1388 19.584 63.2028 19.968C63.2668 19.4347 63.3521 18.8267 63.4588 18.144C63.5868 17.4613 63.7254 16.768 63.8748 16.064C64.0454 15.36 64.1948 14.7307 64.3228 14.176L67.4588 1.152H71.5548ZM71.9748 30.464C71.3774 30.464 70.8654 30.4213 70.4387 30.336C70.0121 30.272 69.6281 30.1973 69.2867 30.112V26.688C69.6281 26.7733 69.9907 26.848 70.3747 26.912C70.7587 26.976 71.1641 27.008 71.5907 27.008C72.1241 27.008 72.6254 26.9013 73.0948 26.688C73.5641 26.4747 73.9374 26.08 74.2148 25.504C74.4921 24.928 74.6308 24.1067 74.6308 23.04V1.152H78.7268V22.944C78.7268 24.736 78.4388 26.176 77.8628 27.264C77.3081 28.3733 76.5188 29.184 75.4948 29.696C74.4921 30.208 73.3188 30.464 71.9748 30.464ZM97.5618 24H84.5698V1.152H97.5618V4.576H88.6658V10.4H96.9858V13.824H88.6658V20.544H97.5618V24ZM116.526 24L114.446 17.952H105.838L103.79 24H99.4375L107.822 1.056H112.494L120.878 24H116.526ZM111.406 8.544C111.32 8.24533 111.192 7.84 111.022 7.328C110.851 6.816 110.68 6.29333 110.51 5.76C110.36 5.20533 110.243 4.74667 110.158 4.384C110.051 4.81067 109.912 5.30133 109.742 5.856C109.592 6.41067 109.443 6.93333 109.294 7.424C109.166 7.91467 109.059 8.288 108.974 8.544L106.958 14.432H113.39L111.406 8.544ZM143.306 24H138.218L127.402 6.08H127.274C127.296 6.54933 127.317 7.05067 127.338 7.584C127.381 8.096 127.413 8.62933 127.434 9.184C127.456 9.71733 127.477 10.2613 127.498 10.816C127.52 11.3707 127.541 11.9253 127.562 12.48V24H123.882V1.152H128.938L139.722 18.944H139.818C139.797 18.5173 139.776 18.0587 139.754 17.568C139.733 17.056 139.712 16.5333 139.69 16C139.69 15.4667 139.68 14.9227 139.658 14.368C139.637 13.8133 139.616 13.28 139.594 12.768V1.152H143.306V24ZM162.537 17.76C162.537 19.104 162.207 20.2667 161.545 21.248C160.884 22.2293 159.924 22.9867 158.665 23.52C157.428 24.0533 155.945 24.32 154.217 24.32C153.385 24.32 152.585 24.2667 151.817 24.16C151.071 24.0747 150.356 23.936 149.673 23.744C149.012 23.552 148.393 23.3173 147.817 23.04V19.2C148.777 19.6267 149.833 20.0213 150.985 20.384C152.137 20.7253 153.311 20.896 154.505 20.896C155.423 20.896 156.169 20.7787 156.745 20.544C157.343 20.288 157.78 19.9467 158.057 19.52C158.335 19.072 158.473 18.56 158.473 17.984C158.473 17.344 158.292 16.8 157.929 16.352C157.567 15.904 157.033 15.488 156.329 15.104C155.625 14.72 154.751 14.3147 153.705 13.888C153.001 13.5893 152.308 13.2587 151.625 12.896C150.964 12.512 150.367 12.0533 149.833 11.52C149.3 10.9867 148.873 10.3573 148.553 9.632C148.233 8.90667 148.073 8.05333 148.073 7.072C148.073 5.77067 148.383 4.65067 149.001 3.712C149.641 2.77333 150.527 2.05867 151.657 1.568C152.809 1.07733 154.143 0.831999 155.657 0.831999C156.873 0.831999 158.015 0.959999 159.081 1.216C160.148 1.472 161.204 1.83467 162.249 2.304L160.937 5.6C159.999 5.19467 159.092 4.87467 158.217 4.64C157.343 4.40533 156.447 4.288 155.529 4.288C154.804 4.288 154.185 4.40533 153.673 4.64C153.161 4.85333 152.777 5.16267 152.521 5.568C152.265 5.97333 152.137 6.44267 152.137 6.976C152.137 7.59467 152.297 8.11733 152.617 8.544C152.937 8.97067 153.428 9.376 154.089 9.76C154.772 10.1227 155.647 10.5387 156.713 11.008C157.951 11.5413 158.996 12.096 159.849 12.672C160.703 13.248 161.364 13.9413 161.833 14.752C162.303 15.5627 162.537 16.5653 162.537 17.76Z" fill="white"/>
</svg>
